<svg xmlns="http://www.w3.org/2000/svg" version="1.1" xmlns:xlink="http://www.w3.org/1999/xlink" width="1000" height="1000"><metadata><rdf:RDF xmlns:rdf="http://www.w3.org/1999/02/22-rdf-syntax-ns#" xmlns:dc="http://purl.org/dc/elements/1.1/"><rdf:Description><dc:creator>RealFaviconGenerator</dc:creator><dc:source>https://realfavicongenerator.net</dc:source></rdf:Description></rdf:RDF></metadata><g clip-path="url(#SvgjsClipPath1041)"><rect width="1000" height="1000" fill="#ffffff"></rect><g transform="matrix(5,0,0,5,0,0)"><svg xmlns="http://www.w3.org/2000/svg" version="1.1" xmlns:xlink="http://www.w3.org/1999/xlink" viewBox="0 0 200 200" width="200" height="200"><rect width="200" height="200" fill="url('#gradient')"></rect><defs><linearGradient id="gradient" gradientTransform="rotate(171 0.5 0.5)"><stop offset="0%" stop-color="#dc3545"></stop><stop offset="100%" stop-color="#000000"></stop></linearGradient><clipPath id="SvgjsClipPath1041"><rect width="1000" height="1000" x="0" y="0" rx="500" ry="500"></rect></clipPath></defs><g><g fill="#ffffff" transform="matrix(1.8571284634760705,0,0,1.8571284634760705,8.006008573467241,113.74509405275435)" stroke="#832018" stroke-width="0"><path d="M12.95-14.22L12.95 0L9.54 0L4.50-8.85L4.50 0L1.07 0L1.07-14.22L4.50-14.22L9.53-5.37L9.53-14.22L12.95-14.22ZM18.44-10.57L18.44 0L15.14 0L15.14-10.57L18.44-10.57ZM14.94-13.29L14.94-13.29Q14.94-13.99 15.45-14.44Q15.96-14.89 16.77-14.89Q17.58-14.89 18.09-14.44Q18.59-13.99 18.59-13.29Q18.59-12.59 18.09-12.14Q17.58-11.69 16.77-11.69Q15.96-11.69 15.45-12.14Q14.94-12.59 14.94-13.29ZM21.01-13.19L24.30-13.19L24.30-10.57L26.04-10.57L26.04-8.28L24.30-8.28L24.30-3.45Q24.30-2.85 24.51-2.62Q24.73-2.38 25.36-2.38L25.36-2.38Q25.85-2.38 26.18-2.44L26.18-2.44L26.18-0.09Q25.29 0.20 24.33 0.20L24.33 0.20Q22.63 0.20 21.82-0.61Q21.01-1.41 21.01-3.04L21.01-3.04L21.01-8.28L19.66-8.28L19.66-10.57L21.01-10.57L21.01-13.19ZM30.80-10.57L30.80 0L27.50 0L27.50-10.57L30.80-10.57ZM27.30-13.29L27.30-13.29Q27.30-13.99 27.81-14.44Q28.32-14.89 29.13-14.89Q29.94-14.89 30.45-14.44Q30.96-13.99 30.96-13.29Q30.96-12.59 30.45-12.14Q29.94-11.69 29.13-11.69Q28.32-11.69 27.81-12.14Q27.30-12.59 27.30-13.29ZM38.36-2.97L38.36-2.97Q38.36-3.39 37.92-3.64Q37.48-3.90 36.25-4.17Q35.02-4.44 34.22-4.89Q33.42-5.33 33.00-5.97Q32.58-6.60 32.58-7.42L32.58-7.42Q32.58-8.88 33.78-9.82Q34.98-10.76 36.92-10.76L36.92-10.76Q39.01-10.76 40.28-9.81Q41.55-8.87 41.55-7.32L41.55-7.32L38.25-7.32Q38.25-8.59 36.91-8.59L36.91-8.59Q36.40-8.59 36.04-8.31Q35.69-8.02 35.69-7.59L35.69-7.59Q35.69-7.15 36.12-6.88Q36.55-6.60 37.50-6.43Q38.44-6.25 39.15-6.01L39.15-6.01Q41.53-5.19 41.53-3.07L41.53-3.07Q41.53-1.62 40.25-0.71Q38.96 0.20 36.92 0.20L36.92 0.20Q35.57 0.20 34.50-0.29Q33.44-0.78 32.84-1.62Q32.25-2.46 32.25-3.39L32.25-3.39L35.32-3.39Q35.34-2.66 35.81-2.32Q36.28-1.98 37.01-1.98L37.01-1.98Q37.69-1.98 38.02-2.26Q38.36-2.53 38.36-2.97ZM46.29-15L46.29-9.43Q47.34-10.76 48.98-10.76L48.98-10.76Q50.73-10.76 51.62-9.73Q52.51-8.69 52.53-6.67L52.53-6.67L52.53 0L49.23 0L49.23-6.59Q49.23-7.43 48.89-7.83Q48.54-8.22 47.72-8.22L47.72-8.22Q46.71-8.22 46.29-7.58L46.29-7.58L46.29 0L43.00 0L43.00-15L46.29-15ZM66.83-3.78L66.83-3.78Q66.83-4.53 66.29-4.95Q65.76-5.37 64.42-5.82Q63.09-6.27 62.24-6.69L62.24-6.69Q59.47-8.05 59.47-10.42L59.47-10.42Q59.47-11.60 60.16-12.50Q60.85-13.41 62.11-13.91Q63.37-14.41 64.94-14.41L64.94-14.41Q66.47-14.41 67.69-13.87Q68.91-13.32 69.58-12.31Q70.25-11.30 70.25-10L70.25-10L66.84-10Q66.84-10.87 66.30-11.35Q65.77-11.83 64.86-11.83L64.86-11.83Q63.95-11.83 63.41-11.42Q62.88-11.02 62.88-10.39L62.88-10.39Q62.88-9.84 63.47-9.40Q64.05-8.96 65.53-8.48Q67.00-8.01 67.95-7.46L67.95-7.46Q70.25-6.13 70.25-3.80L70.25-3.80Q70.25-1.93 68.85-0.87Q67.44 0.20 64.99 0.20L64.99 0.20Q63.26 0.20 61.86-0.42Q60.46-1.04 59.75-2.12Q59.04-3.20 59.04-4.61L59.04-4.61L62.48-4.61Q62.48-3.47 63.07-2.92Q63.66-2.38 64.99-2.38L64.99-2.38Q65.84-2.38 66.33-2.75Q66.83-3.12 66.83-3.78ZM71.46-4.82L71.45-5.38Q71.45-6.96 72.06-8.20Q72.68-9.43 73.83-10.10Q74.98-10.76 76.53-10.76L76.53-10.76Q78.91-10.76 80.27-9.29Q81.64-7.82 81.64-5.29L81.64-5.29L81.64-5.18Q81.64-2.71 80.27-1.25Q78.90 0.20 76.55 0.20L76.55 0.20Q74.30 0.20 72.93-1.16Q71.56-2.51 71.46-4.82L71.46-4.82ZM74.75-5.77L74.74-5.18Q74.74-3.71 75.20-3.03Q75.65-2.34 76.55-2.34L76.55-2.34Q78.31-2.34 78.35-5.05L78.35-5.05L78.35-5.38Q78.35-8.22 76.53-8.22L76.53-8.22Q74.88-8.22 74.75-5.77L74.75-5.77ZM83.03-10.57L86.11-10.57L86.22-9.33Q87.31-10.76 89.24-10.76L89.24-10.76Q90.89-10.76 91.70-9.78Q92.52-8.79 92.55-6.81L92.55-6.81L92.55 0L89.25 0L89.25-6.67Q89.25-7.47 88.93-7.85Q88.60-8.22 87.75-8.22L87.75-8.22Q86.79-8.22 86.32-7.46L86.32-7.46L86.32 0L83.03 0L83.03-10.57ZM97.84-10.57L97.84 0L94.54 0L94.54-10.57L97.84-10.57ZM94.35-13.29L94.35-13.29Q94.35-13.99 94.85-14.44Q95.36-14.89 96.17-14.89Q96.98-14.89 97.49-14.44Q98.00-13.99 98.00-13.29Q98.00-12.59 97.49-12.14Q96.98-11.69 96.17-11.69Q95.36-11.69 94.85-12.14Q94.35-12.59 94.35-13.29Z"></path></g></g></svg></g></g></svg>